HIERARCHY
ROOT Hips
{
  OFFSET 13.6774 106.653 -34.4427
  CHANNELS 6 Xposition Yposition Zposition Zrotation Xrotation Yrotation
  JOINT ToSpine
  {
    OFFSET -2.69724 7.43032 -0.144315
    CHANNELS 3 Zrotation Xrotation Yrotation
    JOINT Spine
    {
      OFFSET -0.0310711 10.7595 1.96963
      CHANNELS 3 Zrotation Xrotation Yrotation
      JOINT Spine1
      {
        OFFSET 19.9056 3.91189 0.764692
        CHANNELS 3 Zrotation Xrotation Yrotation
        JOINT Neck
        {
          OFFSET 25.9749 7.03908 -0.130764
          CHANNELS 3 Zrotation Xrotation Yrotation
          JOINT Head
          {
            OFFSET 9.52751 0.295786 -0.907742
            CHANNELS 3 Zrotation Xrotation Yrotation
            End Site
            {
              OFFSET 16.4037 0.713936 2.7358
            }
          }
        }
        JOINT LeftShoulder
        {
          OFFSET 17.7449 4.33886 11.7777
          CHANNELS 3 Zrotation Xrotation Yrotation
          JOINT LeftArm
          {
            OFFSET 0.911315 1.27913 9.80584
            CHANNELS 3 Zrotation Xrotation Yrotation
            JOINT LeftForeArm
            {
              OFFSET 28.6126 1.18197 -3.53199
              CHANNELS 3 Zrotation Xrotation Yrotation
              JOINT LeftHand
              {
                OFFSET 27.5088 0.0218783 0.327423
                CHANNELS 3 Zrotation Xrotation Yrotation
                End Site
                {
                  OFFSET 18.6038 -0.000155887 0.382096
                }
              }
            }
          }
        }
        JOINT RightShoulder
        {
          OFFSET 17.1009 2.89543 -12.2328
          CHANNELS 3 Zrotation Xrotation Yrotation
          JOINT RightArm
          {
            OFFSET 1.4228 0.178766 -10.211
            CHANNELS 3 Zrotation Xrotation Yrotation
            JOINT RightForeArm
            {
              OFFSET 28.733 1.87905 2.64907
              CHANNELS 3 Zrotation Xrotation Yrotation
              JOINT RightHand
              {
                OFFSET 27.4588 0.290562 -0.101845
                CHANNELS 3 Zrotation Xrotation Yrotation
                End Site
                {
                  OFFSET 17.8396 -0.255518 -0.000602873
                }
              }
            }
          }
        }
      }
    }
  }
  JOINT LeftUpLeg
  {
    OFFSET -5.61296 -2.22332 -10.2353
    CHANNELS 3 Zrotation Xrotation Yrotation
    JOINT LeftLeg
    {
      OFFSET 2.56703 -44.7417 -7.93097
      CHANNELS 3 Zrotation Xrotation Yrotation
      JOINT LeftFoot
      {
        OFFSET 3.16933 -46.5642 -3.96578
        CHANNELS 3 Zrotation Xrotation Yrotation
        JOINT LeftToeBase
        {
          OFFSET 0.346054 -6.02161 12.8035
          CHANNELS 3 Zrotation Xrotation Yrotation
          End Site
          {
            OFFSET 0.134235 -1.35082 5.13018
          }
        }
      }
    }
  }
  JOINT RightUpLeg
  {
    OFFSET -5.7928 -1.72406 10.6446
    CHANNELS 3 Zrotation Xrotation Yrotation
    JOINT RightLeg
    {
      OFFSET -2.57161 -44.7178 -7.85259
      CHANNELS 3 Zrotation Xrotation Yrotation
      JOINT RightFoot
      {
        OFFSET -3.10148 -46.5936 -4.03391
        CHANNELS 3 Zrotation Xrotation Yrotation
        JOINT RightToeBase
        {
          OFFSET -0.0828122 -6.13587 12.8035
          CHANNELS 3 Zrotation Xrotation Yrotation
          End Site
          {
            OFFSET -0.131328 -1.35082 5.13018
          }
        }
      }
    }
  }
}
MOTION
Frames: 8
Frame Time: 0.03333333333333333
0.0000 93.1000 0.0000 -66.8486 -21.9103 -177.5845 -71.1354 -0.2283 87.5925 105.3795 70.5697 -15.5761 -2.1249 20.9850 0.5257 -150.3592 -10.3024 -160.5527 -152.3634 26.7936 -169.2827 1.1171 -9.8798 -30.0586 -79.3419 43.7519 -87.2863 30.9776 -1.8323 -93.7556 0.4141 -0.4903 0.2401 -1.9241 5.7864 44.2615 -73.2635 -42.1145 65.8653 9.1974 -5.8050 61.6478 -0.2228 0.7447 0.5447 -54.5423 18.4678 104.3185 -2.0876 36.0848 1.2335 -7.1075 10.7520 1.4707 4.2027 -13.2564 5.8561 -31.2683 -26.0529 66.5772 1.7580 49.4219 -4.0799 -6.3981 -19.6868 0.3046 3.7490 -12.4198 -30.9981 
0.0000 93.1000 0.0000 -65.8433 -27.6447 -172.8630 -70.9788 0.1847 87.7036 101.7185 71.1076 -10.6802 -0.4485 21.3338 1.2486 -151.2935 -9.1018 -161.5920 -152.7104 28.5537 -170.0349 0.9549 -9.9915 -30.7588 -71.8950 46.6642 -91.2500 27.8441 -2.4702 -95.3104 0.3949 -0.2627 0.3868 -1.7574 6.0492 43.4485 -77.0091 -41.7891 62.0438 10.1915 -6.1639 62.8658 -0.0875 0.9586 1.0051 -55.2853 17.5640 108.1296 -2.5382 34.7401 2.7234 -6.9017 4.1917 0.6529 5.8069 -12.7101 0.9307 -35.6629 -27.2118 67.8504 0.1788 44.2919 -9.4762 -8.9158 -21.2058 0.7736 2.9089 -15.3196 -24.2459 
0.0000 93.1000 0.0000 -66.9204 -33.8892 -170.6815 -70.9198 0.2455 87.7357 98.8114 72.0731 -9.1935 0.6071 21.6054 1.2346 -151.9292 -7.5767 -164.0380 -153.7758 30.0908 -170.1680 0.6458 -10.1633 -30.4123 -65.2346 47.7207 -93.3603 27.1833 -2.7268 -94.5301 -0.1175 -0.1781 0.5386 -1.6104 5.8652 42.4645 -79.2354 -41.4592 61.3989 13.3983 -7.6357 62.8050 -0.1331 0.7220 1.0572 -55.8651 15.0827 110.5611 -1.9973 33.0037 -3.9328 -4.7349 -0.6107 0.0465 5.6119 -14.0762 2.6072 -40.9062 -25.9305 72.7485 0.2812 38.2591 -10.3579 -10.7145 -20.9120 1.0860 1.9661 -14.9304 -24.3970 
0.0000 93.1000 0.0000 -66.1451 -41.3741 -167.3359 -70.8705 0.6282 87.8167 92.4817 72.1470 -5.6323 1.3369 21.0415 1.8481 -150.7349 -6.1365 -168.3358 -151.4607 31.7497 -168.9811 1.1884 -10.6775 -29.9167 -63.9190 49.9208 -90.2632 28.6303 -0.6505 -90.4201 0.1225 0.0695 0.3600 -1.1610 5.0355 42.2958 -79.2736 -42.1171 62.0218 16.0405 -9.9992 60.0059 -0.2321 0.6709 0.8677 -53.9677 12.2814 105.8439 -2.9472 34.5390 -8.7217 -0.4582 -3.7357 -1.2118 5.3563 -14.1814 5.5271 -45.5524 -22.6314 80.1796 0.1345 33.9928 -6.3567 -11.2339 -19.7632 1.2196 2.9690 -15.7681 -26.2859 
0.0000 93.1000 0.0000 -63.1327 -48.9579 -161.4881 -70.8331 0.0955 87.8439 90.5893 71.4744 -3.9308 2.4435 20.4557 2.6263 -151.3564 -4.1342 -171.5074 -151.1271 33.7648 -170.4347 0.7829 -11.3608 -29.8657 -65.0758 48.9441 -85.1627 27.0363 2.3269 -85.3710 0.0328 -0.2663 0.3926 -1.7515 5.1114 41.8411 -80.1509 -42.5232 64.1773 17.0211 -12.2909 56.7044 0.0186 0.3563 0.5157 -51.0497 7.3567 97.1425 -3.3116 37.7460 -8.1055 2.2808 -7.6922 -1.3755 4.1441 -12.3129 8.1974 -47.6540 -17.8085 86.5522 0.9221 38.2062 -3.8494 -10.4195 -16.0851 1.0537 2.9137 -18.4062 -25.2257 
0.0000 93.1000 0.0000 -60.2471 -52.1603 -156.6258 -70.9310 0.1108 87.8154 86.6323 71.3781 0.9554 3.9833 20.8535 1.3018 -152.5459 -2.1472 -173.6842 -151.4960 36.0501 -171.2416 0.5211 -12.1062 -30.0376 -70.2004 48.7845 -79.1136 26.9216 6.0754 -79.2221 0.0659 -0.3052 0.2749 -1.6883 5.1184 41.3534 -78.0941 -43.7111 67.4210 15.8591 -12.1120 54.8785 -0.1050 0.5417 0.5545 -51.8566 3.1541 93.8789 -3.2960 35.6681 -5.9571 3.1385 -9.6816 -1.7226 3.3332 -9.8427 8.7902 -48.6629 -11.2991 92.5987 0.8433 41.5113 -1.8159 -9.2605 -13.8387 0.8758 2.5151 -16.9681 -22.4278 
0.0000 93.1000 0.0000 -56.1630 -55.1112 -150.2944 -71.0330 -0.2279 87.7092 84.4433 71.9994 1.4066 3.5250 21.7389 0.0794 -153.4488 -0.2986 -175.5402 -151.8003 38.7920 -172.1173 -0.1763 -12.8537 -30.6684 -76.6628 46.7263 -71.3269 25.8048 8.5514 -73.2306 0.5448 -0.6580 0.6475 -1.9181 4.9296 41.1914 -75.1379 -43.2969 69.0648 16.6766 -13.8809 52.7291 -0.4132 1.1079 0.8298 -52.5846 -0.2349 91.4436 -2.9705 35.5032 -6.0674 5.1732 -12.0162 -1.7614 1.6982 -7.8208 8.0630 -47.1914 -6.4826 95.7375 2.1250 45.2490 -0.2684 -9.6822 -11.3402 0.7453 2.9408 -16.9784 -18.1983 
0.0000 93.1000 0.0000 -49.4203 -59.8213 -143.2592 -70.8208 -1.5487 87.8071 90.0538 72.2108 -4.5659 2.1894 21.0447 1.9177 -155.2431 3.6112 -178.8164 -152.5539 42.0434 -170.9338 -0.6008 -12.7376 -29.8512 -78.9866 44.7811 -68.2320 24.7735 10.1822 -68.5080 -1.1424 -0.2131 -1.1309 -4.1264 5.7260 41.2955 -73.4780 -43.2390 70.1967 18.3773 -15.0009 51.6885 1.2057 -2.3476 -2.5242 -52.7492 -2.1375 91.0097 -2.3687 34.8002 -9.7843 5.9906 -13.2356 -1.6885 3.1326 -7.3003 8.1845 -45.9547 -2.3439 96.4007 2.2421 47.6779 -1.1404 -7.7854 -8.6280 1.3674 0.3973 -18.4095 -15.5314 
